<?xml version="1.0" encoding="UTF-8"?>
<svg id="Layer_2" data-name="Layer 2" xmlns="http://www.w3.org/2000/svg" viewBox="0 0 423 74.13">
  <defs>
    <style>
      .cls-1 {
        fill: #3a78b1;
      }

      .cls-2 {
        fill: #fff;
      }
    </style>
  </defs>
  <g id="Layer_1-2" data-name="Layer 1">
    <g>
      <g>
        <g id="rectangle">
          <rect class="cls-1" x="0" y="0" width="74.13" height="74.13" rx="37.06" ry="37.06"/>
        </g>
        <g id="particle_path" data-name="particle path">
          <path class="cls-2" d="M12.75,64.44v-31.82c0-11.23,9.34-25.61,25.43-25.61,15.09,0,25.67,12.42,25.67,25.14,0,21.85-20.77,25.5-20.77,25.5,0,0,1.28-2.05,1.28-5.25,0-3.03-1.43-4.99-1.43-4.99,0,0,10.69-2.85,10.69-15.5,0-9.62-9.44-14.79-15.32-14.79-10.16,0-15.73,8.65-15.73,15.01v32.41c0,4.61-3.12,4.25-3.12,4.25h-3.43s-3.28,0-3.28-4.35h0Z"/>
        </g>
        <g id="particle">
          <circle class="cls-2" cx="34.38" cy="52.5" r="8.55"/>
        </g>
      </g>
      <g id="wordmark">
        <g>
          <path d="M85.68,68.86V7.21h25.54c20.96,0,26.16,11.1,26.16,21.23s-6.69,21.05-26.16,21.05h-11.89v19.38h-13.65,0ZM99.33,19.98v16.73h11.71c8.54,0,12.15-3.17,12.15-8.37,0-4.84-3-8.37-11.63-8.37h-12.24Z"/>
          <path d="M161.51,22.09c14.62,0,24.92,9.95,24.92,23.78s-10.3,23.69-24.92,23.69-24.75-9.95-24.75-23.69,10.13-23.78,24.75-23.78h0ZM161.51,57.67c6.96,0,11.71-4.4,11.71-11.8s-5.29-11.89-11.71-11.89-11.54,4.32-11.54,11.89c0,6.69,4.67,11.8,11.54,11.8Z"/>
          <path d="M191.37,36.27c0-8.81,7.31-14.18,19.73-14.18,8.72,0,16.12,4.05,19.02,8.28l-8.72,8.37c-2.99-3.08-7.13-4.76-12.86-4.76-2.38,0-3.96.53-3.96,2.2,0,3.96,25.98,2.73,25.98,18.94,0,10.04-8.98,14.44-19.38,14.44-11.19,0-18.67-5.11-21.93-11.1l10.13-6.87c2.47,3.17,7.57,6.08,13.21,6.08,3.08,0,4.76-.79,4.76-2.47,0-4.49-25.98-3.35-25.98-18.93h0Z"/>
          <path d="M243.07,4.57c4.14,0,7.13,2.73,7.13,6.34s-3,6.52-7.13,6.52c-4.49,0-7.22-2.73-7.22-6.52s2.99-6.34,7.22-6.34ZM236.64,23.06h12.77v45.8h-12.77V23.06Z"/>
          <path d="M254.61,23.06h8.72v-10.66h12.77v10.66h14v11.89h-14v14.88c0,5.55,1.23,7.66,4.67,7.66,2.99,0,5.37-1.06,7.84-3l5.29,9.07c-3.17,3.35-8.1,5.81-14.36,5.81-9.6,0-16.2-5.2-16.2-15.76v-18.67h-8.72v-11.89h0Z"/>
          <path d="M297.41,23.06h12.77v1.85c.97-1.32,4.05-2.73,7.05-2.73,4.84,0,6.96,1.41,8.98,3.96l-6.52,10.22c-.62-1.15-2.47-1.85-4.14-1.85-2.03,0-4.32.88-5.37,4.76v29.59h-12.77V23.06h0Z"/>
          <path d="M349.02,22.09c14.62,0,24.92,9.95,24.92,23.78s-10.3,23.69-24.92,23.69-24.75-9.95-24.75-23.69,10.13-23.78,24.75-23.78ZM349.02,57.67c6.96,0,11.71-4.4,11.71-11.8s-5.29-11.89-11.71-11.89-11.54,4.32-11.54,11.89c0,6.69,4.67,11.8,11.54,11.8Z"/>
          <path d="M379.67,23.06h12.77v3.26c2.03-2.47,6.34-4.14,12.51-4.14,11.71,0,18.05,6.25,18.05,20.96v25.72h-12.77v-24.92c0-7.4-2.91-9.86-8.98-9.86-4.14,0-7.22,2.2-8.81,6.08v28.71h-12.77V23.06h0Z"/>
        </g>
      </g>
    </g>
  </g>
</svg>